<svg xmlns="http://www.w3.org/2000/svg" xml:space="preserve" id="svg22" width="467.722" height="467.381" version="1.1"><g id="Lcd_With_Coding_icons" transform="translate(-22.139 -22.31)"><g id="g18"><path id="path4" d="M256.168 22.31c128.777 0 233.693 104.567 233.693 233.686 0 129.123-104.916 233.695-233.693 233.695-129.125 0-234.029-104.572-234.029-233.695 0-129.119 104.904-233.686 234.029-233.686" style="clip-rule:evenodd;fill:#84dbff;fill-rule:evenodd"/><path id="path6" d="M485.485 210.95c2.696 14.449 4.376 29.58 4.376 45.045 0 122.061-93.479 221.929-212.514 232.684L110.239 328.287c0-66.904 3.353-130.125 3.353-197.034l287.84-3.369c2.347 4.376 83.381 83.066 84.053 83.066" style="clip-rule:evenodd;fill:#6bb1cf;fill-rule:evenodd"/><path id="rect8" d="M220.188 326.278h71.618v40.011h-71.618z" style="clip-rule:evenodd;fill:#202d3b;fill-rule:evenodd"/><path id="rect10" d="M110.239 127.884h291.526v201.081H110.239z" style="clip-rule:evenodd;fill:#2c3e51;fill-rule:evenodd"/><path id="rect12" d="M130.41 148.063h251.181v160.726H130.41z" style="clip-rule:evenodd;fill:#fff;fill-rule:evenodd"/><path id="path14" d="M174.46 233.807v-9.753l57.835-24.545v10.76l-45.73 18.834 45.73 18.83v10.755zm64.557 39.681 25.553-90.124h8.417l-25.223 90.124zm98.521-39.681-57.833 24.88v-10.755l45.732-18.83-45.732-18.834v-10.76l57.833 24.545z" style="fill:#4b4b55"/><path id="path16" d="M313.66 379.063H198.333c-4.374 0-7.728-3.359-7.728-7.391 0-4.371 3.354-7.735 7.728-7.735H313.66c4.376 0 7.74 3.364 7.74 7.735 0 4.031-3.364 7.391-7.74 7.391" style="clip-rule:evenodd;fill:#2c3e51;fill-rule:evenodd"/></g></g></svg>