<svg xmlns="http://www.w3.org/2000/svg" width="29" height="29" fill="none"><path fill="#000" d="M14.5 0C6.53 0 0 6.587 0 14.557 0 22.48 6.471 29 14.5 29 22.519 29 29 22.49 29 14.557 29 6.587 22.47 0 14.5 0m2.549 27.046a12.6 12.6 0 0 1-2.549.255 12.6 12.6 0 0 1-2.549-.255V23.07c0-.952.255-1.292.595-1.75.173-.198.277-.376 1.053-1.547l-1.308-.204c-3.365-.492-4.69-2.243-5.217-3.602-.68-1.818-.322-4.095.901-5.54.187-.22.34-.594.204-.985-.255-.782-.221-2.022-.051-2.498.9.129 1.827.774 2.6 1.24.356.208.543.153.713.17.621-.129 1.59-.441 3.076-.441.918 0 1.886.136 2.838.407.17-.004.443.141.917-.135.808-.493 1.703-1.116 2.6-1.241.17.476.204 1.716-.05 2.498-.137.39.016.765.203.986 1.224 1.444 1.58 3.72.9 5.539-.526 1.36-1.851 3.11-5.216 3.602l-1.308.204c.802 1.21.886 1.356 1.053 1.546.34.46.595.8.595 1.75zm1.699-.493V23.07c0-.969-.204-1.614-.476-2.09 2.583-.697 4.418-2.226 5.234-4.418.866-2.311.476-5.064-.969-6.967.255-1.139.255-2.957-.356-3.806a1.33 1.33 0 0 0-1.122-.578h-.017c-1.318.071-2.355.735-3.466 1.41a11.738 11.738 0 0 0-6.134 0c-1.17-.706-2.198-1.34-3.552-1.41-.425 0-.799.204-1.07.578-.612.85-.612 2.667-.357 3.806-1.445 1.903-1.836 4.673-.969 6.967.816 2.192 2.651 3.721 5.234 4.418-.211.368-.378.844-.444 1.488-.521.18-.974.239-1.395.115-.443-.131-.79-.427-1.09-.933-.674-1.133-1.824-2.059-3.133-1.938l.15 1.692c.606-.055 1.209.586 1.522 1.114.517.87 1.213 1.442 2.07 1.695.636.187 1.218.183 1.844.05v2.29c-4.945-1.733-8.553-6.457-8.553-11.996C1.7 7.522 7.465 1.699 14.5 1.699s12.8 5.823 12.8 12.858c0 5.54-3.607 10.263-8.552 11.996"/></svg>