<svg xmlns="http://www.w3.org/2000/svg" width="27" height="27" fill="none"><g fill="#000" clip-path="url('#clip0_2_210')"><path d="M26.974 7.938c-.064-1.435-.296-2.42-.628-3.275a6.6 6.6 0 0 0-1.561-2.395 6.65 6.65 0 0 0-2.39-1.556c-.86-.332-1.84-.564-3.275-.628C17.675.016 17.216 0 13.55 0S9.425.016 7.985.08C6.552.141 5.566.374 4.71.706c-.907.343-1.72.87-2.395 1.561A6.65 6.65 0 0 0 .76 4.658c-.332.86-.564 1.84-.627 3.275-.069 1.445-.085 1.904-.085 5.57 0 3.665.016 4.124.08 5.564.063 1.435.295 2.421.627 3.276.343.907.876 1.72 1.561 2.394a6.65 6.65 0 0 0 2.39 1.556c.86.333 1.84.565 3.275.628 1.44.063 1.9.079 5.565.079s4.124-.016 5.565-.08c1.434-.062 2.42-.294 3.275-.627a6.9 6.9 0 0 0 3.95-3.95c.333-.86.565-1.841.628-3.276.063-1.44.08-1.899.08-5.564s-.006-4.125-.07-5.565m-2.432 11.024c-.058 1.318-.28 2.03-.464 2.505a4.48 4.48 0 0 1-2.563 2.564c-.475.184-1.192.406-2.506.463-1.424.064-1.851.08-5.454.08s-4.035-.016-5.453-.08c-1.32-.057-2.031-.279-2.506-.463a4.16 4.16 0 0 1-1.55-1.008 4.2 4.2 0 0 1-1.008-1.55c-.185-.475-.406-1.193-.464-2.506-.063-1.424-.08-1.851-.08-5.454s.017-4.035.08-5.454c.058-1.318.28-2.03.464-2.505a4.1 4.1 0 0 1 1.013-1.55A4.2 4.2 0 0 1 5.6 2.995c.475-.185 1.193-.406 2.506-.464 1.424-.064 1.851-.08 5.454-.08 3.607 0 4.035.016 5.454.08 1.318.058 2.03.28 2.505.464a4.15 4.15 0 0 1 1.55 1.007c.449.438.792.966 1.008 1.551.185.475.406 1.192.464 2.505.063 1.425.08 1.852.08 5.454 0 3.603-.017 4.025-.08 5.449"/><path d="M13.55 6.567a6.94 6.94 0 0 0-6.936 6.936 6.94 6.94 0 0 0 6.936 6.936 6.94 6.94 0 0 0 6.936-6.936 6.94 6.94 0 0 0-6.936-6.936m0 11.435a4.5 4.5 0 1 1 .001-9 4.5 4.5 0 0 1 0 9M22.38 6.293a1.62 1.62 0 1 1-3.24 0 1.62 1.62 0 0 1 3.24 0"/></g><defs><clipPath id="clip0_2_210"><path fill="#fff" d="M0 0h27v27H0z"/></clipPath></defs></svg>