<svg xmlns="http://www.w3.org/2000/svg" width="28" height="28" fill="none"><path fill="#000" d="M8.75 23.133H4.922v-12.36H8.75zm.382-16.297a2.242 2.242 0 1 0-4.484 0 2.242 2.242 0 0 0 4.484 0m13.946 9.497c0-3.318-.7-5.778-4.576-5.778-1.863 0-3.113.931-3.623 1.9h-.004v-1.682h-3.719v12.36h3.719v-6.137c0-1.607.41-3.164 2.401-3.164 1.965 0 2.029 1.838 2.029 3.266v6.035h3.773zM28 24.72V3.28A3.285 3.285 0 0 0 24.719 0H3.28A3.285 3.285 0 0 0 0 3.281V24.72A3.285 3.285 0 0 0 3.281 28H24.72A3.285 3.285 0 0 0 28 24.719M24.719 2.188c.603 0 1.093.49 1.093 1.093V24.72c0 .603-.49 1.093-1.093 1.093H3.28c-.603 0-1.094-.49-1.094-1.093V3.28c0-.603.491-1.094 1.094-1.094z"/></svg>