<svg xmlns="http://www.w3.org/2000/svg" width="224.103" height="320.998" viewBox="0 0 59.294 84.931"><path fill="#dd4b25" d="m2.58 25.49 52.373 1.204-4.247 46.635-18.835 9.223-24.374-9.846z" paint-order="markers stroke fill"/><path fill="#e96228" d="M29.478 24.923c1.983 22.555-.607 37.422 2.393 57.63l18.835-9.224 4.247-46.635z" paint-order="markers stroke fill"/><path d="M20.166 80.228c-6.4-2.902-12.006-5.186-12.457-5.078-1.619.39-2.77-3.63-4.464-15.59C-.395 33.872-.877 24.774 1.35 23.835c5.246-2.213 52.08-1.083 54.896-.886 3.437.24 2.394 5.446.533 18.125-1.86 12.679-3.865 28.338-3.968 30.725-.089 2.659-5.123 4.494-6.727 5.573-2.657 1.801-8.732 5.2-12.665 7.277-2.228 1.177-6.853-1.52-13.254-4.42m26.857-8.69c1.345-.803 1.269-1.483 1.41-2.95.872-9.108 3.983-33.27 4.504-35.921 1.172-5.96-.65-4.83-10.637-4.94-6.337-.061-17.328-.175-24.424-.256-7.096-.08-13.315.063-13.82.318-1.027.519 1.501 19.696 5.552 41.877.421 2.306.517 2.75 4.277 3.908 2.107.65 6.772 2.387 10.357 3.89 6.845 3.037 7.464 3.221 10.338 1.488 3.362-1.763 9.515-5.555 12.443-7.414m-25.2-2.514c-5.605-3.77-6.084-4.315-5.265-6 .846-1.743 3.618-1.129 8.653 1.916 5.046 3.166 4.255 3.066 10.75-.353 2.623-1.38 1.915-1.588 2.533-9.008.186-2.225-1.055-1.858-3.008-1.89l-4.9.065c-10.86.143-12.77-.357-14.029-1.851-1.187-1.41-3.511-15.525-2.798-16.993.47-.966 4.189-1.068 19.89-.547 7.357.245 8.735.467 9.02 1.456.184.641-.092 1.46-.613 1.82-1.586 1.093-9.547 1.555-16.494.957-3.611-.31-6.566-.31-6.568 0 0 .309.233 2.776.52 5.483.37 3.486.836 4.9 1.6 4.849 9.787-.664 19.871-.609 20.983.115 1.83 1.191 2.08 5.345.724 11.964-1.145 6.783-.777 5.394-6.617 8.7-3.066 1.736-6.31 3.02-7.38 2.923-1.05-.09-4.204-1.718-7.01-3.606zM.785 16.884c0-2.266-1.114-12.366-.69-14.433C.342 1.266.932.204 1.41.091 2.4-.14 3.608 3.878 3.372 6.627c-.135 1.542.115 1.788 1.556 1.532.943-.167 2.431-.247 3.307-.178 1.435.123 1.616-.258 1.825-3.767.188-3.157.481-3.923 1.555-4.048 1.953-.225 2.566 2.94 2.09 10.801-.387 6.377-.51 6.809-1.903 6.689-1.102-.095-1.607-.87-1.94-2.98-.417-2.648-.644-2.87-3.175-3.087-2.717-.233-2.726-.234-2.931 2.914-.153 2.34-.522 3.184-1.437 3.289-.677.078-1.533-.307-1.533-.907zm19.823-.832c-1.037-.631-.717-3.64-.738-6.84l-.039-5.818-2.574-.222c-2.043-.175-2.5-.483-2.213-1.494.663-2.34 13.176-2.184 12.975.162-.055.647-1.042 1.197-2.365 1.32-2.145.2-2.333.376-2.189 3.196.349 6.838.964 12.024-2.857 9.696zm8.96-.248c-.317-.736-.44-4.195-.273-7.686.278-5.852.418-6.354 1.793-6.432.895-.05 2.5 1.08 4.006 2.819l2.513 2.903 1.794-3.267c3.587-6.533 6.291-4.581 6.53 4.714.135 5.172-.044 6.416-1.034 7.25-1.98 1.666-3.273-.475-3.408-5.665l-.12-4.609-1.792 3.01c-2.04 3.428-3.828 3.73-5.063.855-1.275-2.97-1.689-2.435-1.83 2.363-.1 3.451-.383 4.463-1.333 4.736-.853.06-1.53-.442-1.783-.991m20.3 1.201c-1.853-.99-2.091-2.456-1.68-9.579.265-4.626.53-5.599 1.551-5.718 1.582-.185 1.89 1.196 1.99 7.528.089 5.643-1.47 5.09 3.857 5.333 3.372.155 3.805.349 3.691 1.664-.108 1.248-.761 1.672-4.018 1.546-1.746-.067-3.848.051-5.391-.774"/><path fill="#fff" d="M21.822 69.024c-5.604-3.77-6.083-4.315-5.264-6 .846-1.743 3.618-1.129 8.653 1.916 5.046 3.166 4.255 3.066 10.75-.353 2.623-1.38 1.915-1.588 2.533-9.008.186-2.225-1.055-1.858-3.008-1.89l-4.9.065c-10.86.143-12.77-.357-14.029-1.851-1.187-1.41-3.511-15.525-2.798-16.993.47-.966 4.189-1.068 19.889-.547 7.358.245 8.736.467 9.02 1.456.185.641-.091 1.46-.612 1.82-1.586 1.093-9.547 1.555-16.494.957-3.611-.31-6.566-.31-6.568 0 0 .309.233 2.776.52 5.483.37 3.486.836 4.9 1.6 4.849 9.787-.664 19.871-.609 20.983.115 1.83 1.191 2.08 5.345.724 11.964-1.145 6.783-.777 5.394-6.617 8.7-3.066 1.736-6.31 3.02-7.38 2.923-1.05-.09-4.204-1.718-7.01-3.606z"/></svg>