<svg xmlns="http://www.w3.org/2000/svg" width="218.712" height="321.859" viewBox="0 0 57.868 85.159"><path fill="#00aad9" d="m3.369 24.935 52.502.239-5.155 44.343-21.368 13.611L4.598 68.4z" paint-order="markers stroke fill"/><path fill="#016dba" d="M29.652 24.829c-1.561 26.525 2.327 32.986.225 58.3L4.597 68.4 3.37 24.935s23.343.033 26.283-.106" paint-order="markers stroke fill"/><path d="M43.105 0c-1.04-.004-1.994.123-2.62.404-4.949 2.8-4.464 6.75 1.31 10.76 1.674 1.162 5.174 3.19-.998 3.537-2.54.143-3.267 2.13-1.542 3.71l.445.409c1.91 1.75 8.075.443 9.844-2.495 1.526-2.533.41-4.647-4.096-7.76-1.911-1.322-3.464-2.867-3.441-3.433.034-1.05.696-1.066 4.572-.11 2.128.525 2.97-1.377 2.086-3.32C48.1.654 45.393.008 43.105 0M28.253.31c-1.217.009-2.549.282-3.997.789-5.419 1.897-4.78 6.706 1.27 9.554 5.851 2.755 6.216 4.112.155 3.918-3.69-.118-4.837 2.559-1.891 3.55l.66.221c2.471.832 7.799.592 9.593-.231 1.945-.893 2.379-3.663 1.7-6.115-.71-2.558-6.172-4.514-8.162-5.018-1.2-.303-3.504-2.101-.788-2.852 1.07-.295 2.622.442 3.885.702 2.271.466 3.379-1.857 1.702-3.171C31.192.725 29.817.299 28.253.31M10.849.97c-.354 0-.703.033-1.038.101-2.784.564-6.59 4.53-7.327 7.637-.825 3.48.886 7.38 4.11 9.366 1.884 1.157 3.344 1.494 5.51 1.258 4.262-.465 6.99-1.7 7.038-3.187.063-1.947-1.029-2.253-4.98-1.395-5.235 1.138-7.605-.078-7.483-3.837.122-3.742 2.9-6.12 6.624-5.67 2.19.264 2.64.075 2.678-1.129.053-1.61-2.654-3.148-5.132-3.143m28.616 21.401c-5.487-.012-11.444.095-16.67.345-7.645.366-15.92.668-18.388.678-3.938.011-4.477.193-4.4 1.486.048.81.49 5.79.982 11.064.492 5.275 1.14 14.61 1.439 20.746.298 6.136.776 11.53 1.062 11.99.691 1.107 8.55 6.354 17.858 11.92 4.149 2.482 6.823 3.817 7.058 4.014 2.078 1.74 4.196-1.07 7.372-3.075a2043 2043 0 0 1 11.368-7.108c3.076-1.907 5.794-3.955 6.037-4.552.244-.598 1.245-9.988 2.226-20.868s2.02-20.994 2.307-22.475c.289-1.482.152-2.92-.303-3.197-.968-.59-8.805-.947-17.948-.968m12.124 4.605c2.444-.04 2.04.11 1.337 4.001-.395 2.185-1.553 10.366-2.375 18.219-1.58 15.089-2.235 19.015-3.17 19.02-.317.004-4.389 2.628-9.007 5.892l-5.77 4.077c-2.95 2.08-2.658 2.15-5.734.397-3.962-2.241-13.297-7.605-16.143-9.3-2.852-1.699-2.517-1.093-2.618-4.594C7.72 57.8 5.64 32.103 5.333 29.13c-.192-1.864 2.09-1.44 46.256-2.153"/><path fill="#fff" d="M35.608 31.994c-3.303-.017-7.41.13-12.262.446-9.37.607-12.214 1.348-10.732 2.794.61.596 4.512.913 12.445 1.012 7.244.09 11.269.391 10.788.81-.423.366-5.095 2.612-10.384 4.991-7.465 3.357-9.687 4.69-9.923 5.955-.447 2.388 2.36 3.113 12.43 3.445l6.918.228c2.215.016 1.723-.183 1.578 2.115-.502 8.627.17 8.565-5.314 11.976-3.55 2.209-4.018 2.452-5.18 1.451-1.777-1.53-7.579-4.374-9.005-4.413-2.104-.059-2.332 1.51-.48 3.314.998.972 3.736 2.813 6.083 4.089s4.548 2.34 4.89 2.35c1.257.062 6.656-2.719 9.697-4.993 1.76-1.316 3.25-3.123 3.407-4.13.154-.984.736-3.723 1.294-6.086.557-2.363 1.049-5.377 1.092-6.698.094-2.872-.523-3.093-10.114-3.623l-6.668-.367 6.39-3.232c3.514-1.778 8.023-4.48 10.02-6.003 3.176-2.424 3.5-2.923 2.6-3.989-.786-.929-4.063-1.413-9.569-1.44z"/></svg>