<svg xmlns="http://www.w3.org/2000/svg" width="218.71" height="316.715" viewBox="0 0 57.867 83.798"><path fill="#d0b422" d="m2.53 24.438 54.054-.553-5.561 44.057-21.608 13.421L4.454 66.008z" paint-order="markers stroke fill"/><path fill="#f7d724" d="M29.75 24.03c-.55 4.243-.027 19.892-1.326 25.1s.991 32.233.991 32.233l21.608-13.421 5.561-44.057z" paint-order="markers stroke fill"/><path fill="#fff" d="M13.99 30.177c-2.672-.02-3.788.15-4.28.64-.849.849-.943 1.361-.101 2.202 1.252 1.252 3.854 1.504 11.468 1.728 2.57-.07 3.55-.655 3.265 14.166 0 4.266.116 6.933-.479 15.71-.095 1.4.352.428-3.646-1.477-4.31-2.318-4.535-2.586-4.412-5.263.173-3.76-.44-5.167-2.278-5.236-1.929-.072-2.836 2.526-2.477 7.093.303 3.853 1.334 6.831 8.597 9.382l.987.346c2.364.83 4.294 1.73 5.224 1.764 1.726.065 2.58-1.1 3.11-8.045.43-5.617.458-13.805.664-20.608.354-11.742-.462-11.825-6.148-12.067-4.398-.188-7.417-.32-9.495-.335m27.548.36c-2.138 0-4.356.298-5.838 1.315-3.16 2.169-4.205 8.258-4.146 11.796.06 3.537 2.179 6.364 6.248 7.413s4.85 2.548 4.614 5.483c-.1 3.555-1.553 5.323-4.01 6.415a269 269 0 0 1-6.536 2.782c-2.252.921-2.465 4.882.064 4.936 2.528.053 11.232-3.229 13.099-5.5 2.063-2.51 1.965-5.623 2.42-8.627s.239-7.357-3.474-8.708-8.29-1.75-7.763-5.822c.373-2.886.363-5.247 3.266-6.26 2.904-1.014 6.652-.66 8.015-.589s2.46-2.86-.186-4.103c-2.103-.241-4.02-.522-5.773-.532"/><path d="M24.673 0c-1.242.03-1.42.785-1.725 5.651-.197 3.14-.621 5.926-.941 6.191-.32.26-1.805.343-3.298.17-4.163-.48-4.973 2.29-1.201 4.11 10.762 3.97 10.54-3.16 9.958-12.014C27.249.816 26.233.052 24.936.004A5 5 0 0 0 24.673 0m11.983.523c-1.816-.038-4.13.7-5.666 2.515-1.622 1.916-.301 5.942 3.233 7.141 3.504 1.19 3.144 2.68-.613 2.54-3.634-.136-4.303 1.876-1.182 3.555 1.998 1.063 3.089 1.455 6.268-.11 1.607-1.045 2.247-2.117 2.33-3.903.116-2.534-2.446-5.114-5.199-5.708-.61-.131-1.723-1.082-.49-2.116.377-.316 1.463-.68 2.594-.638 2.216.083 2.865-1.468.773-2.77-.5-.31-1.222-.488-2.048-.506m2.808 20.487c-5.486-.013-11.443.095-16.668.345-7.646.366-15.921.668-18.39.678-3.938.011-4.475.193-4.4 1.486.049.81.491 5.79.983 11.064.493 5.275 1.14 14.61 1.438 20.746s.777 11.53 1.063 11.989c.691 1.108 8.55 6.354 17.858 11.92 4.148 2.482 6.824 3.818 7.059 4.014 2.077 1.741 4.195-1.07 7.372-3.074s8.292-5.203 11.368-7.109 5.793-3.955 6.036-4.552c.244-.597 1.245-9.988 2.226-20.868s2.019-20.993 2.307-22.474.152-2.92-.303-3.197c-.969-.59-8.805-.947-17.949-.968m12.125 4.605c2.444-.028 2.04.11 1.337 4-.395 2.186-1.553 10.367-2.375 18.22-1.58 15.089-2.235 19.015-3.171 19.02-.316.003-4.388 2.628-9.006 5.892l-5.77 4.077c-2.95 2.08-2.658 2.15-5.733.397-3.963-2.241-13.298-7.605-16.144-9.3-2.852-1.7-2.517-1.093-2.618-4.594-.39-6.888-2.826-33.122-3.068-36.102-.15-1.84 3.131-1.105 46.548-1.61"/></svg>