<svg xmlns="http://www.w3.org/2000/svg" id="svg4254" width="120" height="120" version="1.1"><path id="circle16150" d="M112.613 60A52.613 52.613 0 0 1 60 112.613 52.613 52.613 0 0 1 7.387 60 52.613 52.613 0 0 1 60 7.387 52.613 52.613 0 0 1 112.613 60" style="opacity:1;fill:#80deea;fill-opacity:1;stroke:none;stroke-width:6.9px;stroke-linecap:round;stroke-linejoin:miter;stroke-miterlimit:4;stroke-dasharray:none;stroke-dashoffset:0;stroke-opacity:1"/><path id="rect16154" d="M90.1 29.712h.48v6.537h-.48z" style="color:#000;clip-rule:nonzero;visibility:visible;opacity:1;isolation:auto;mix-blend-mode:normal;color-interpolation:srgb;color-interpolation-filters:linearRGB;solid-color:#000;solid-opacity:1;fill:#37474f;fill-opacity:1;fill-rule:nonzero;stroke:none;stroke-width:35.2px;stroke-linecap:butt;stroke-linejoin:miter;stroke-miterlimit:4;stroke-dasharray:none;stroke-dashoffset:0;stroke-opacity:1;color-rendering:auto;image-rendering:auto;shape-rendering:auto;text-rendering:auto;display:inline;overflow:visible"/><path id="path16156" d="M91.653 30.556c-.223.386-2.402.386-2.625 0-.223-.387.866-2.274 1.313-2.274s1.535 1.887 1.312 2.274" style="color:#000;clip-rule:nonzero;visibility:visible;opacity:1;isolation:auto;mix-blend-mode:normal;color-interpolation:srgb;color-interpolation-filters:linearRGB;solid-color:#000;solid-opacity:1;fill:#37474f;fill-opacity:1;fill-rule:nonzero;stroke:none;stroke-width:35.2px;stroke-linecap:butt;stroke-linejoin:miter;stroke-miterlimit:4;stroke-dasharray:none;stroke-dashoffset:0;stroke-opacity:1;color-rendering:auto;image-rendering:auto;shape-rendering:auto;text-rendering:auto;display:inline;overflow:visible"/><path id="path16158" d="M92.596 33.34c-.384.665-4.127.665-4.51 0-.384-.663 1.488-3.905 2.255-3.905s2.638 3.242 2.255 3.906" style="color:#000;clip-rule:nonzero;visibility:visible;opacity:1;isolation:auto;mix-blend-mode:normal;color-interpolation:srgb;color-interpolation-filters:linearRGB;solid-color:#000;solid-opacity:1;fill:#37474f;fill-opacity:1;fill-rule:nonzero;stroke:none;stroke-width:35.2px;stroke-linecap:butt;stroke-linejoin:miter;stroke-miterlimit:4;stroke-dasharray:none;stroke-dashoffset:0;stroke-opacity:1;color-rendering:auto;image-rendering:auto;shape-rendering:auto;text-rendering:auto;display:inline;overflow:visible"/><path id="rect16162" d="M54.992 62.288h.565v7.684h-.565z" style="color:#000;clip-rule:nonzero;visibility:visible;opacity:1;isolation:auto;mix-blend-mode:normal;color-interpolation:srgb;color-interpolation-filters:linearRGB;solid-color:#000;solid-opacity:1;fill:#37474f;fill-opacity:1;fill-rule:nonzero;stroke:none;stroke-width:35.2px;stroke-linecap:butt;stroke-linejoin:miter;stroke-miterlimit:4;stroke-dasharray:none;stroke-dashoffset:0;stroke-opacity:1;color-rendering:auto;image-rendering:auto;shape-rendering:auto;text-rendering:auto;display:inline;overflow:visible"/><path id="path16164" d="M56.817 63.28c-.262.454-2.823.454-3.085 0s1.018-2.672 1.543-2.672 1.805 2.218 1.542 2.672" style="color:#000;clip-rule:nonzero;visibility:visible;opacity:1;isolation:auto;mix-blend-mode:normal;color-interpolation:srgb;color-interpolation-filters:linearRGB;solid-color:#000;solid-opacity:1;fill:#37474f;fill-opacity:1;fill-rule:nonzero;stroke:none;stroke-width:35.2px;stroke-linecap:butt;stroke-linejoin:miter;stroke-miterlimit:4;stroke-dasharray:none;stroke-dashoffset:0;stroke-opacity:1;color-rendering:auto;image-rendering:auto;shape-rendering:auto;text-rendering:auto;display:inline;overflow:visible"/><path id="path16166" d="M57.925 66.554c-.45.78-4.85.78-5.301 0-.45-.78 1.75-4.591 2.65-4.591.902 0 3.102 3.81 2.651 4.59" style="color:#000;clip-rule:nonzero;visibility:visible;opacity:1;isolation:auto;mix-blend-mode:normal;color-interpolation:srgb;color-interpolation-filters:linearRGB;solid-color:#000;solid-opacity:1;fill:#37474f;fill-opacity:1;fill-rule:nonzero;stroke:none;stroke-width:35.2px;stroke-linecap:butt;stroke-linejoin:miter;stroke-miterlimit:4;stroke-dasharray:none;stroke-dashoffset:0;stroke-opacity:1;color-rendering:auto;image-rendering:auto;shape-rendering:auto;text-rendering:auto;display:inline;overflow:visible"/><path id="rect16168" d="M54.992 62.288h.565v7.684h-.565z" style="color:#000;clip-rule:nonzero;visibility:visible;opacity:1;isolation:auto;mix-blend-mode:normal;color-interpolation:srgb;color-interpolation-filters:linearRGB;solid-color:#000;solid-opacity:1;fill:#37474f;fill-opacity:1;fill-rule:nonzero;stroke:none;stroke-width:35.2px;stroke-linecap:butt;stroke-linejoin:miter;stroke-miterlimit:4;stroke-dasharray:none;stroke-dashoffset:0;stroke-opacity:1;color-rendering:auto;image-rendering:auto;shape-rendering:auto;text-rendering:auto;display:inline;overflow:visible"/><path id="path16170" d="M56.817 63.28c-.262.454-2.823.454-3.085 0s1.018-2.672 1.543-2.672 1.805 2.218 1.542 2.672" style="color:#000;clip-rule:nonzero;visibility:visible;opacity:1;isolation:auto;mix-blend-mode:normal;color-interpolation:srgb;color-interpolation-filters:linearRGB;solid-color:#000;solid-opacity:1;fill:#37474f;fill-opacity:1;fill-rule:nonzero;stroke:none;stroke-width:35.2px;stroke-linecap:butt;stroke-linejoin:miter;stroke-miterlimit:4;stroke-dasharray:none;stroke-dashoffset:0;stroke-opacity:1;color-rendering:auto;image-rendering:auto;shape-rendering:auto;text-rendering:auto;display:inline;overflow:visible"/><path id="path16172" d="M57.925 66.554c-.45.78-4.85.78-5.301 0-.45-.78 1.75-4.591 2.65-4.591.902 0 3.102 3.81 2.651 4.59" style="color:#000;clip-rule:nonzero;visibility:visible;opacity:1;isolation:auto;mix-blend-mode:normal;color-interpolation:srgb;color-interpolation-filters:linearRGB;solid-color:#000;solid-opacity:1;fill:#37474f;fill-opacity:1;fill-rule:nonzero;stroke:none;stroke-width:35.2px;stroke-linecap:butt;stroke-linejoin:miter;stroke-miterlimit:4;stroke-dasharray:none;stroke-dashoffset:0;stroke-opacity:1;color-rendering:auto;image-rendering:auto;shape-rendering:auto;text-rendering:auto;display:inline;overflow:visible"/><path id="path16174" d="m100.114 26.044-4.318 9.714-17.46-2.328-7.568 4.074L57.38 68.936l-23.283 6.985-13.854 18.44A52.61 52.61 0 0 0 60 112.613 52.613 52.613 0 0 0 112.613 60a52.6 52.6 0 0 0-12.5-33.956" style="fill:#263238;fill-rule:evenodd;stroke:none;stroke-width:2.60395px;stroke-linecap:butt;stroke-linejoin:miter;stroke-opacity:1"/><path id="path16176" d="m37.217 75.234 14.23-3.813-2.63-2.588-2.236-.03-1.989-2.905-2.53.678-1.724-1.378-1.363 1.963.169 2.618-2.118.228-.478 2.55-.954 1.32z" style="fill:#263238;fill-rule:evenodd;stroke:none;stroke-width:2.60395px;stroke-linecap:butt;stroke-linejoin:miter;stroke-opacity:1"/><path id="path16178" d="m21.108 73.274 3.495 3.495 3.498-2.994.12-3.272-3.159-2.355-3.964.447z" style="fill:#263238;fill-rule:evenodd;stroke:none;stroke-width:2.60395px;stroke-linecap:butt;stroke-linejoin:miter;stroke-opacity:1"/><path id="path16180" d="m29.14 75.293 1.247-4.654 3.536 2.042-2.136 3.7-1.002-1.735z" style="fill:#263238;fill-rule:evenodd;stroke:none;stroke-width:2.60395px;stroke-linecap:butt;stroke-linejoin:miter;stroke-opacity:1"/><path id="path16182" d="M20.812 79.568v1.621l2.937-.787-.945-1.636z" style="fill:#263238;fill-rule:evenodd;stroke:none;stroke-width:2.60395px;stroke-linecap:butt;stroke-linejoin:miter;stroke-opacity:1"/><path id="rect16184" d="M79.863 24.512h.862v11.737h-.862z" style="color:#000;clip-rule:nonzero;visibility:visible;opacity:1;isolation:auto;mix-blend-mode:normal;color-interpolation:srgb;color-interpolation-filters:linearRGB;solid-color:#000;solid-opacity:1;fill:#263238;fill-opacity:1;fill-rule:nonzero;stroke:none;stroke-width:35.2px;stroke-linecap:butt;stroke-linejoin:miter;stroke-miterlimit:4;stroke-dasharray:none;stroke-dashoffset:0;stroke-opacity:1;color-rendering:auto;image-rendering:auto;shape-rendering:auto;text-rendering:auto;display:inline;overflow:visible"/><path id="path16186" d="M82.65 26.027c-.4.694-4.312.694-4.713 0s1.556-4.082 2.357-4.082 2.757 3.388 2.357 4.082" style="color:#000;clip-rule:nonzero;visibility:visible;opacity:1;isolation:auto;mix-blend-mode:normal;color-interpolation:srgb;color-interpolation-filters:linearRGB;solid-color:#000;solid-opacity:1;fill:#263238;fill-opacity:1;fill-rule:nonzero;stroke:none;stroke-width:35.2px;stroke-linecap:butt;stroke-linejoin:miter;stroke-miterlimit:4;stroke-dasharray:none;stroke-dashoffset:0;stroke-opacity:1;color-rendering:auto;image-rendering:auto;shape-rendering:auto;text-rendering:auto;display:inline;overflow:visible"/><path id="path16188" d="M84.343 31.028c-.688 1.192-7.41 1.192-8.098 0-.688-1.193 2.672-7.013 4.049-7.013s4.737 5.82 4.049 7.013" style="color:#000;clip-rule:nonzero;visibility:visible;opacity:1;isolation:auto;mix-blend-mode:normal;color-interpolation:srgb;color-interpolation-filters:linearRGB;solid-color:#000;solid-opacity:1;fill:#263238;fill-opacity:1;fill-rule:nonzero;stroke:none;stroke-width:35.2px;stroke-linecap:butt;stroke-linejoin:miter;stroke-miterlimit:4;stroke-dasharray:none;stroke-dashoffset:0;stroke-opacity:1;color-rendering:auto;image-rendering:auto;shape-rendering:auto;text-rendering:auto;display:inline;overflow:visible"/></svg>